<?xml version="1.0" encoding="UTF-8" standalone="no"?>
<svg
   version="1.0"
   width="1560.000000pt"
   height="1500.000000pt"
   viewBox="0 0 1560.000000 1500.000000"
   preserveAspectRatio="xMidYMid meet"
   id="svg4"
   sodipodi:docname="babel.svg"
   inkscape:version="1.4 (86a8ad7, 2024-10-11)"
   xmlns:inkscape="http://www.inkscape.org/namespaces/inkscape"
   xmlns:sodipodi="http://sodipodi.sourceforge.net/DTD/sodipodi-0.dtd"
   xmlns="http://www.w3.org/2000/svg"
   xmlns:svg="http://www.w3.org/2000/svg">
  <defs
     id="defs4" />
  <sodipodi:namedview
     id="namedview4"
     pagecolor="#ffffff"
     bordercolor="#000000"
     borderopacity="0.25"
     inkscape:showpageshadow="2"
     inkscape:pageopacity="0.0"
     inkscape:pagecheckerboard="0"
     inkscape:deskcolor="#d1d1d1"
     inkscape:document-units="pt"
     inkscape:zoom="0.19425"
     inkscape:cx="1655.0837"
     inkscape:cy="1227.7992"
     inkscape:window-width="1920"
     inkscape:window-height="991"
     inkscape:window-x="-9"
     inkscape:window-y="-9"
     inkscape:window-maximized="1"
     inkscape:current-layer="svg4" />
  <metadata
     id="metadata1">
Created by potrace 1.16, written by Peter Selinger 2001-2019
</metadata>
  <g
     transform="matrix(0.13604435,0,0,-0.13604435,-251.33753,1779.3271)"
     fill="#000000"
     stroke="none"
     id="g4">
    <path
       d="m 7590,13693 c -47,-25 -112,-64 -145,-88 -161,-114 -311,-172 -548,-210 -53,-8 -103,-18 -112,-21 -13,-5 -15,-36 -15,-203 0,-108 -9,-396 -20,-641 -22,-491 -34,-585 -99,-835 -39,-146 -51,-189 -111,-405 -34,-121 -61,-257 -90,-455 -35,-248 -42,-284 -60,-312 -19,-31 -48,-43 -163,-68 -68,-14 -79,-20 -89,-43 -6,-17 -13,-224 -18,-532 -13,-753 -30,-1351 -41,-1386 -12,-38 -55,-83 -130,-136 -37,-26 -62,-51 -69,-72 -29,-82 -47,-435 -66,-1308 -5,-197 -10,-282 -19,-294 -9,-14 -30,-18 -93,-19 -129,-4 -133,-7 -180,-143 -22,-64 -45,-137 -51,-162 -5,-25 -22,-97 -36,-160 -14,-63 -30,-133 -35,-155 -5,-22 -16,-76 -24,-120 -9,-44 -27,-134 -41,-200 -14,-66 -30,-149 -35,-185 -5,-36 -23,-144 -40,-240 -17,-96 -42,-285 -55,-420 -14,-135 -34,-326 -45,-425 -10,-99 -21,-211 -25,-250 -20,-230 -61,-471 -125,-740 -79,-331 -101,-427 -120,-525 -32,-172 -59,-346 -75,-500 -21,-190 -39,-282 -65,-328 -38,-67 -147,-134 -368,-228 -59,-25 -131,-57 -161,-71 -29,-13 -70,-31 -90,-38 -20,-7 -111,-47 -203,-89 -92,-42 -170,-76 -172,-76 -3,0 -44,-18 -93,-41 -106,-49 -115,-53 -273,-120 -69,-29 -135,-63 -146,-75 -25,-24 -39,-104 -26,-149 l 8,-30 300,3 c 806,9 1362,10 1909,3 330,-4 610,-4 623,1 l 22,8 v 334 c 0,305 2,340 20,398 36,117 117,215 315,381 143,120 316,236 445,299 52,25 259,127 460,226 336,166 746,362 756,362 2,0 46,20 96,44 105,50 299,135 433,191 50,20 115,47 145,60 30,13 135,53 233,90 98,36 194,75 213,86 20,11 39,17 44,14 5,-3 12,0 17,7 12,19 100,61 111,54 6,-3 13,-2 17,4 9,14 97,54 113,52 6,-2 12,1 12,7 0,12 140,82 151,75 5,-3 9,-1 9,5 0,12 130,76 148,73 6,-2 12,1 12,7 0,12 140,82 151,75 5,-3 9,-1 9,4 0,14 186,105 198,98 5,-3 15,1 22,9 6,7 18,11 26,8 8,-3 14,0 14,5 0,13 60,43 71,36 5,-3 9,-1 9,5 0,9 95,61 113,61 5,0 21,9 37,20 15,11 30,16 34,12 4,-3 10,-2 14,4 13,19 125,81 305,169 105,51 177,92 177,101 0,8 -4,14 -10,14 -5,0 -10,6 -10,14 0,8 -6,21 -13,28 -8,7 -16,19 -18,26 -5,15 -150,162 -159,162 -4,0 -48,-18 -98,-40 -49,-22 -97,-40 -105,-40 -19,0 -47,72 -83,212 -29,116 -128,486 -143,535 -5,18 -33,139 -61,270 -126,579 -161,685 -244,743 -93,63 -308,140 -433,155 -83,9 -128,-6 -142,-47 -26,-73 -6,-117 61,-137 93,-28 226,-85 275,-118 116,-79 127,-110 329,-943 30,-124 65,-268 79,-320 49,-193 96,-449 85,-469 -13,-25 -133,-100 -235,-147 -327,-150 -732,-316 -950,-388 -199,-66 -210,-69 -223,-53 -22,26 -111,282 -152,437 -89,337 -123,555 -135,870 -8,188 -27,323 -53,382 -24,56 -80,109 -156,150 -53,28 -71,32 -137,33 -69,0 -83,-4 -154,-40 -125,-63 -308,-255 -476,-500 -60,-87 -79,-125 -79,-156 0,-28 23,-33 63,-14 42,20 190,164 277,270 193,235 292,307 349,254 57,-53 80,-172 81,-414 0,-209 46,-639 91,-860 15,-71 44,-155 101,-288 91,-215 98,-244 72,-281 -11,-14 -22,-26 -27,-26 -4,0 -26,-12 -50,-27 -23,-15 -66,-40 -96,-56 -30,-15 -73,-39 -95,-52 -66,-38 -357,-191 -556,-293 -102,-52 -196,-103 -210,-112 -24,-16 -84,-40 -101,-40 -11,0 -9,-12 -64,460 -31,261 -46,368 -96,665 -69,418 -104,578 -141,645 -107,196 -261,292 -563,350 -98,19 -154,40 -167,63 -17,32 -22,296 -9,417 12,104 40,227 65,285 31,70 78,162 98,195 86,138 265,333 413,452 203,163 500,326 824,453 204,80 256,102 504,211 159,70 362,150 670,263 172,64 565,223 717,291 63,29 123,54 133,57 25,8 21,30 -10,49 -16,9 -57,36 -93,58 -81,52 -113,66 -148,66 -15,0 -117,-20 -227,-45 -110,-25 -225,-48 -257,-52 l -56,-6 -20,40 c -12,22 -33,82 -47,134 -37,129 -76,222 -156,369 -73,134 -137,307 -194,516 -43,163 -44,197 -4,280 30,61 31,70 27,157 -5,110 -29,167 -78,187 -46,19 -282,7 -384,-20 -96,-24 -156,-57 -240,-130 -182,-160 -340,-450 -244,-450 22,0 126,101 163,160 52,79 167,166 247,185 42,11 172,-23 218,-56 70,-51 107,-124 188,-369 76,-231 83,-256 127,-445 45,-200 90,-662 70,-725 -7,-22 -22,-30 -460,-240 -219,-105 -258,-122 -347,-154 -212,-76 -230,-63 -243,174 -43,826 -59,961 -134,1157 -37,96 -82,150 -194,235 -171,131 -287,259 -307,340 -15,59 4,189 56,371 58,206 130,330 287,488 61,62 234,213 282,246 70,49 240,124 363,162 186,57 300,78 502,91 119,8 179,16 189,25 15,15 8,38 -65,192 -30,62 -39,73 -70,83 -60,20 -201,-6 -431,-80 -56,-18 -75,-21 -86,-12 -11,9 -15,64 -21,254 -9,316 -34,760 -47,816 -27,121 -125,316 -218,432 -20,25 -83,91 -141,147 -101,99 -105,104 -105,145 0,24 8,57 16,73 9,17 45,86 82,155 72,137 91,200 112,379 14,117 9,189 -16,244 -17,38 -47,34 -149,-20 z m -5,-1085 c 75,-76 75,-73 86,-923 5,-407 7,-750 4,-762 -12,-49 -142,-37 -169,15 -28,54 -37,220 -43,732 -4,414 -2,559 11,738 9,123 18,228 22,233 12,20 49,7 89,-33 z M 7293,8940 c 111,-52 135,-108 117,-269 -30,-276 -45,-1139 -21,-1245 21,-88 12,-94 -146,-103 l -102,-6 -7,29 c -10,38 3,947 16,1159 17,268 44,425 78,445 22,12 16,13 65,-10 z M 6589,5133 c 47,-20 103,-47 124,-60 66,-41 69,-58 76,-418 9,-458 -4,-1594 -18,-1675 -29,-156 -61,-223 -124,-254 -36,-17 -41,-17 -80,-2 -49,19 -82,64 -96,128 -10,49 -6,2242 4,2288 4,17 11,30 17,30 6,0 50,-17 97,-37 z"
       id="path1" />
    <path
       d="m 11000,3184 c -188,-27 -268,-60 -371,-151 -69,-62 -170,-182 -209,-248 -17,-30 -23,-57 -24,-108 0,-38 2,-74 7,-80 8,-13 78,58 147,148 54,71 107,119 165,148 74,38 95,40 179,22 154,-34 197,-93 302,-409 154,-463 209,-799 202,-1236 -1,-88 1,-162 5,-166 5,-5 169,-8 302,-4 44,1 46,8 46,188 1,159 -1,173 -20,201 -32,44 -59,111 -82,199 -28,105 -70,204 -150,352 -73,134 -137,307 -194,516 -43,163 -44,197 -4,280 30,61 31,70 27,157 -5,104 -29,165 -73,185 -24,11 -192,15 -255,6 z"
       id="path2" />
    <path
       d="m 9539,2603 c -6,-7 -44,-11 -99,-11 -84,0 -92,-2 -127,-29 -21,-16 -77,-56 -126,-88 -227,-152 -351,-342 -272,-420 38,-39 82,-33 199,26 56,28 114,60 129,71 16,12 65,36 110,55 97,41 146,42 163,3 16,-33 40,-320 60,-715 9,-176 20,-324 26,-330 12,-13 334,-13 347,0 15,15 29,1073 15,1094 -6,9 -11,34 -11,57 0,22 -3,46 -7,53 -5,7 -9,23 -11,37 -1,14 -12,39 -24,55 -12,16 -20,33 -17,38 6,9 -66,71 -82,71 -5,0 -15,6 -21,14 -6,7 -22,11 -36,8 -14,-2 -32,1 -41,9 -20,16 -162,18 -175,2 z"
       id="path3" />
    <path
       d="m 7892,1860 c -67,-14 -139,-59 -224,-139 -85,-79 -102,-106 -143,-222 -27,-76 -43,-206 -31,-253 5,-22 12,-26 40,-26 39,0 48,9 92,93 66,123 73,134 108,165 79,69 152,61 343,-38 73,-38 188,-107 255,-153 169,-116 200,-131 211,-103 13,32 -109,324 -185,441 -39,61 -105,132 -153,165 -90,62 -216,90 -313,70 z"
       id="path4" />
  </g>
</svg>
